<svg id="svg" version="1.1" xmlns="http://www.w3.org/2000/svg" xmlns:xlink="http://www.w3.org/1999/xlink" width="400" height="237.3056994818653" viewBox="0, 0, 400,237.3056994818653"><g id="svgg"><path id="path1" d="M236.080 37.539 C 233.648 39.277,232.345 42.569,231.680 48.665 C 231.531 50.036,231.327 51.905,231.227 52.819 C 230.599 58.576,230.846 75.374,231.801 91.988 C 232.608 106.036,232.569 106.239,227.943 111.810 C 227.564 112.267,227.052 112.961,226.806 113.353 C 226.560 113.745,226.178 114.199,225.958 114.362 C 225.738 114.525,225.318 115.059,225.024 115.549 C 224.731 116.038,224.138 116.880,223.708 117.418 C 223.277 117.957,222.792 118.705,222.629 119.080 C 222.466 119.455,222.100 120.051,221.816 120.403 C 221.531 120.755,220.966 121.743,220.560 122.599 C 220.154 123.454,219.501 124.830,219.110 125.657 C 218.718 126.483,218.398 127.323,218.398 127.524 C 218.398 127.724,218.188 128.155,217.931 128.481 C 216.766 129.963,216.661 135.588,217.773 136.946 C 217.920 137.126,218.255 137.712,218.516 138.248 C 219.169 139.586,223.162 141.736,225.728 142.131 C 226.201 142.203,226.855 142.394,227.181 142.554 C 227.507 142.714,229.104 142.920,230.729 143.012 C 234.343 143.217,234.905 143.499,235.140 145.229 C 235.224 145.846,235.543 147.472,235.849 148.843 C 236.804 153.127,236.901 154.430,236.343 155.466 C 236.160 155.805,235.747 156.581,235.424 157.190 C 235.102 157.799,234.589 158.649,234.283 159.078 C 233.978 159.507,233.507 160.611,233.238 161.531 C 232.151 165.247,230.422 167.606,228.663 167.775 C 226.932 167.941,225.797 167.112,221.958 162.873 C 220.849 161.648,219.764 160.457,219.547 160.226 C 219.070 159.717,216.736 156.279,216.736 156.084 C 216.736 155.405,213.060 151.217,212.464 151.217 C 210.083 151.217,209.604 153.974,211.248 158.215 C 211.755 159.523,212.404 161.395,212.690 162.374 C 212.976 163.353,213.427 164.742,213.691 165.460 C 214.483 167.611,214.487 167.925,213.732 168.762 L 213.056 169.510 203.680 169.271 C 198.522 169.140,192.914 168.929,191.217 168.804 C 189.519 168.678,185.353 168.514,181.958 168.441 C 178.564 168.368,173.116 168.194,169.852 168.055 C 156.517 167.488,156.868 167.515,155.860 166.974 L 154.925 166.472 156.097 165.937 C 156.895 165.574,158.028 165.340,159.644 165.206 C 165.084 164.754,170.304 164.429,173.637 164.335 C 178.649 164.194,180.233 163.298,179.356 161.102 C 178.298 158.453,174.331 157.393,165.460 157.387 C 159.322 157.384,159.364 157.394,155.852 154.923 C 154.811 154.190,153.709 153.591,153.403 153.591 C 153.044 153.591,152.412 153.143,151.617 152.327 C 149.354 150.005,146.090 147.894,144.762 147.893 C 144.541 147.893,144.293 147.784,144.210 147.650 C 143.927 147.192,140.891 145.817,138.754 145.178 C 137.579 144.827,136.317 144.325,135.950 144.062 C 135.583 143.799,134.461 143.336,133.457 143.032 C 132.453 142.728,130.724 142.137,129.614 141.718 C 128.504 141.299,126.902 140.711,126.053 140.412 C 123.978 139.680,119.816 138.163,116.914 137.081 C 115.608 136.595,113.825 136.004,112.951 135.768 C 112.077 135.532,111.115 135.188,110.814 135.003 C 110.513 134.817,108.718 134.155,106.825 133.530 C 104.932 132.906,103.099 132.250,102.753 132.073 C 102.406 131.896,101.966 131.751,101.774 131.751 C 101.583 131.751,100.143 131.110,98.574 130.326 C 97.006 129.543,95.562 128.902,95.366 128.902 C 95.170 128.902,94.704 128.742,94.330 128.547 C 93.956 128.352,93.406 128.192,93.108 128.191 C 92.810 128.191,92.062 127.940,91.446 127.634 C 90.830 127.328,89.579 126.834,88.665 126.537 C 87.751 126.240,86.736 125.891,86.409 125.761 C 85.275 125.311,82.006 124.371,80.038 123.929 C 78.844 123.661,77.848 123.287,77.530 122.988 C 77.239 122.716,76.879 122.493,76.728 122.493 C 76.578 122.493,75.574 122.062,74.498 121.537 C 73.422 121.011,71.897 120.414,71.108 120.211 C 70.319 120.008,69.513 119.698,69.318 119.524 C 69.122 119.349,68.641 119.135,68.249 119.047 C 67.858 118.960,66.950 118.618,66.231 118.288 C 64.380 117.437,63.177 117.033,62.499 117.033 C 62.177 117.033,61.629 116.874,61.283 116.680 C 60.534 116.260,59.160 115.763,56.736 115.033 C 55.757 114.739,54.528 114.272,54.006 113.997 C 53.069 113.503,52.791 113.370,50.920 112.519 C 50.398 112.281,49.062 111.650,47.953 111.117 C 46.843 110.584,45.750 110.148,45.525 110.148 C 45.299 110.148,44.931 109.867,44.706 109.524 C 44.338 108.963,40.466 106.836,39.780 106.818 C 39.640 106.815,39.106 106.494,38.593 106.106 C 38.080 105.718,37.533 105.401,37.378 105.401 C 37.223 105.401,36.821 105.184,36.485 104.919 C 36.148 104.654,35.288 104.093,34.574 103.673 C 33.859 103.252,32.445 102.267,31.432 101.484 C 30.418 100.700,29.249 99.846,28.834 99.585 C 27.571 98.790,25.867 97.508,24.494 96.320 C 23.777 95.700,23.048 95.193,22.874 95.193 C 22.700 95.193,22.407 94.830,22.221 94.386 C 22.036 93.942,21.393 93.081,20.794 92.473 C 20.194 91.864,19.703 91.231,19.703 91.066 C 19.703 90.901,19.426 90.506,19.087 90.190 C 17.831 89.017,16.279 84.996,15.893 81.912 C 15.305 77.224,16.469 73.622,19.433 70.957 C 20.072 70.381,21.116 69.443,21.752 68.871 C 22.934 67.808,25.903 65.713,27.181 65.041 C 27.573 64.834,28.107 64.542,28.368 64.391 C 28.629 64.240,29.323 63.901,29.911 63.637 C 30.499 63.373,31.865 62.674,32.948 62.083 C 34.030 61.492,35.076 61.009,35.271 61.009 C 35.466 61.009,35.862 60.856,36.151 60.670 C 36.440 60.484,37.798 59.959,39.169 59.504 C 40.540 59.049,42.409 58.396,43.323 58.052 C 47.722 56.397,50.943 55.321,51.517 55.315 C 51.715 55.313,52.249 55.113,52.704 54.871 C 53.159 54.628,54.439 54.298,55.549 54.137 C 56.659 53.976,57.914 53.699,58.338 53.522 C 58.762 53.344,60.044 53.026,61.187 52.813 C 62.329 52.601,64.332 52.177,65.638 51.872 C 68.252 51.262,70.236 50.892,72.047 50.677 C 73.379 50.519,75.723 50.015,77.507 49.504 C 78.160 49.317,79.228 49.106,79.881 49.034 C 80.534 48.963,81.816 48.751,82.730 48.563 C 85.732 47.945,87.253 47.715,88.338 47.715 C 88.926 47.715,90.575 47.564,92.003 47.379 C 93.431 47.194,95.561 46.973,96.736 46.888 C 97.911 46.803,100.528 46.585,102.552 46.404 C 114.287 45.354,122.608 45.080,134.243 45.361 C 142.094 45.550,153.463 46.274,154.024 46.621 C 154.153 46.701,155.684 46.929,157.426 47.127 C 161.789 47.623,163.247 47.864,165.259 48.422 C 166.213 48.686,167.209 48.906,167.473 48.910 C 167.737 48.915,168.380 49.125,168.902 49.377 C 169.424 49.629,170.035 49.839,170.260 49.844 C 170.484 49.848,171.456 50.109,172.420 50.424 C 173.384 50.738,174.777 51.071,175.516 51.163 C 176.256 51.256,176.918 51.424,176.987 51.536 C 177.122 51.754,180.353 53.335,183.207 54.579 C 185.054 55.385,186.745 56.420,187.893 57.448 C 188.285 57.799,189.033 58.337,189.555 58.643 C 190.077 58.950,190.973 59.608,191.547 60.105 C 192.120 60.602,192.720 61.009,192.880 61.009 C 193.040 61.009,193.444 61.421,193.777 61.924 C 194.110 62.427,194.982 63.486,195.715 64.278 C 196.934 65.595,198.930 68.777,198.933 69.410 C 198.934 69.555,199.084 69.960,199.267 70.310 C 199.450 70.661,199.671 71.302,199.759 71.735 C 199.847 72.168,200.137 73.110,200.402 73.828 C 202.267 78.870,200.434 88.710,196.690 93.755 C 196.356 94.205,196.083 94.699,196.083 94.854 C 196.083 95.008,195.923 95.268,195.727 95.430 C 195.269 95.810,195.267 96.948,195.724 97.327 C 196.256 97.768,197.171 97.425,197.777 96.557 C 198.073 96.133,198.390 95.733,198.481 95.668 C 199.333 95.056,202.744 89.246,203.213 87.606 C 204.541 82.966,204.357 71.810,202.930 70.458 C 202.559 70.107,202.255 69.639,202.255 69.419 C 202.255 69.199,201.951 68.472,201.579 67.803 C 201.207 67.135,200.763 66.214,200.592 65.757 C 200.420 65.300,200.043 64.659,199.754 64.332 C 199.464 64.006,199.035 63.325,198.801 62.819 C 198.322 61.786,196.877 60.268,194.430 58.230 C 192.021 56.222,191.428 55.787,189.694 54.755 C 188.834 54.242,187.970 53.687,187.774 53.521 C 187.209 53.042,182.537 50.681,181.058 50.128 C 180.319 49.851,179.524 49.522,179.293 49.397 C 178.125 48.764,176.085 47.952,174.599 47.528 C 170.148 46.258,168.281 45.801,166.647 45.580 C 164.837 45.336,164.378 45.243,160.593 44.358 C 157.377 43.605,146.950 42.522,138.160 42.028 C 128.161 41.465,100.878 42.784,94.243 44.150 C 93.656 44.271,91.840 44.544,90.208 44.756 C 88.576 44.968,86.792 45.240,86.245 45.360 C 85.698 45.480,84.736 45.580,84.109 45.582 C 83.481 45.584,82.326 45.741,81.543 45.930 C 80.760 46.119,79.629 46.278,79.031 46.282 C 78.048 46.290,75.842 46.663,71.098 47.625 C 70.184 47.810,68.723 48.071,67.851 48.204 C 66.979 48.338,63.948 49.028,61.116 49.739 C 58.284 50.449,55.418 51.100,54.749 51.185 C 54.079 51.270,53.338 51.439,53.102 51.561 C 52.866 51.683,51.744 52.037,50.609 52.349 C 46.688 53.425,41.313 55.165,38.813 56.167 C 38.030 56.480,37.298 56.737,37.187 56.737 C 37.076 56.736,36.649 56.882,36.238 57.060 C 35.826 57.239,33.941 57.995,32.047 58.740 C 30.154 59.485,28.018 60.487,27.301 60.967 C 26.583 61.447,25.693 61.972,25.323 62.133 C 24.364 62.551,19.859 65.550,19.632 65.922 C 19.527 66.093,19.079 66.419,18.636 66.647 C 17.475 67.245,15.004 69.714,14.436 70.844 C 14.169 71.375,13.800 71.981,13.617 72.191 C 13.040 72.849,11.849 76.619,11.880 77.686 C 11.896 78.241,11.892 79.976,11.871 81.543 C 11.830 84.590,11.919 84.967,13.306 87.627 C 14.608 90.123,15.846 92.118,16.767 93.205 C 18.319 95.035,19.552 96.386,20.280 97.050 C 20.663 97.400,21.333 98.069,21.769 98.537 C 22.205 99.006,23.227 99.727,24.040 100.139 C 24.854 100.551,26.277 101.576,27.203 102.418 C 28.130 103.260,29.156 104.016,29.484 104.098 C 29.812 104.181,30.432 104.569,30.862 104.962 C 32.244 106.224,34.061 107.510,35.026 107.909 C 35.542 108.122,36.125 108.432,36.320 108.597 C 36.516 108.762,36.991 108.973,37.375 109.064 C 37.760 109.156,38.881 109.797,39.868 110.490 C 40.855 111.182,41.929 111.829,42.255 111.927 C 42.898 112.121,45.658 113.332,46.378 113.737 C 49.475 115.476,53.460 117.299,55.668 117.986 C 56.582 118.271,57.884 118.760,58.561 119.074 C 59.238 119.387,59.969 119.644,60.185 119.644 C 60.401 119.644,60.850 119.858,61.182 120.119 C 61.513 120.380,62.133 120.593,62.559 120.593 C 62.985 120.593,64.065 120.904,64.960 121.283 C 65.855 121.662,67.068 122.091,67.656 122.236 C 68.243 122.382,69.151 122.704,69.674 122.954 C 71.181 123.674,72.859 124.392,73.036 124.392 C 73.184 124.392,76.625 125.998,77.732 126.584 C 78.517 126.999,82.405 128.203,84.137 128.567 C 85.041 128.757,85.908 129.018,86.063 129.147 C 86.218 129.276,87.027 129.603,87.861 129.873 C 88.695 130.144,90.018 130.719,90.801 131.152 C 91.585 131.585,93.454 132.278,94.955 132.692 C 97.880 133.500,98.496 133.735,99.542 134.441 C 99.911 134.690,100.659 135.034,101.204 135.206 C 101.750 135.377,102.783 135.746,103.501 136.025 C 105.939 136.971,106.647 137.211,106.997 137.211 C 107.189 137.211,107.683 137.362,108.095 137.547 C 110.055 138.429,111.316 138.953,112.404 139.335 C 113.056 139.565,114.338 140.025,115.252 140.357 C 116.166 140.690,117.972 141.296,119.265 141.706 C 120.558 142.115,122.641 142.972,123.894 143.612 C 126.569 144.977,128.256 145.675,129.297 145.849 C 129.710 145.918,130.733 146.393,131.571 146.906 C 133.852 148.302,136.231 149.555,136.602 149.555 C 137.710 149.555,144.720 153.684,144.912 154.451 C 145.293 155.967,144.154 156.677,141.338 156.677 C 136.589 156.677,134.066 159.941,137.360 161.823 L 138.176 162.290 137.723 162.866 C 137.455 163.206,136.697 163.620,135.875 163.875 C 132.635 164.879,132.063 165.094,131.207 165.628 C 130.051 166.350,129.729 167.146,130.213 168.082 C 131.092 169.781,131.819 169.919,141.348 170.198 C 145.796 170.328,151.786 170.543,154.659 170.676 C 157.531 170.808,162.445 170.973,165.579 171.043 C 181.828 171.402,189.560 171.645,191.810 171.865 C 197.868 172.458,200.429 172.614,207.122 172.801 C 214.279 173.000,215.844 173.195,216.123 173.922 C 216.204 174.132,216.432 175.092,216.631 176.056 C 216.830 177.020,217.371 178.528,217.832 179.408 C 218.391 180.474,218.826 181.803,219.135 183.383 C 219.389 184.688,219.713 186.344,219.854 187.062 C 219.994 187.780,220.412 189.490,220.783 190.861 C 221.153 192.231,221.639 194.154,221.862 195.134 C 222.084 196.113,222.567 197.715,222.934 198.694 C 223.301 199.674,223.769 201.543,223.974 202.849 C 224.527 206.374,225.259 208.840,226.473 211.276 C 226.701 211.733,226.962 212.631,227.054 213.271 C 227.363 215.423,228.628 219.185,229.609 220.864 C 230.144 221.780,230.823 223.194,231.117 224.005 C 232.397 227.533,235.051 230.504,236.924 230.504 C 239.628 230.504,240.514 229.358,240.954 225.290 C 241.101 223.924,241.269 222.729,241.327 222.636 C 241.667 222.087,242.219 199.719,242.124 190.386 C 241.935 171.846,241.086 174.113,248.098 174.436 C 254.843 174.746,256.956 175.148,259.043 176.519 C 260.992 177.800,260.849 177.800,262.315 176.499 C 262.976 175.911,263.701 175.420,263.925 175.408 C 265.875 175.301,271.659 175.536,273.900 175.813 C 275.427 176.002,278.279 176.257,280.237 176.380 C 282.196 176.503,284.332 176.710,284.985 176.840 C 285.638 176.969,286.973 177.129,287.953 177.194 C 288.932 177.259,291.442 177.484,293.531 177.695 C 295.620 177.905,298.504 178.159,299.941 178.260 C 301.588 178.374,302.832 178.587,303.312 178.835 C 303.730 179.051,304.563 179.228,305.163 179.228 C 307.284 179.228,307.773 180.559,307.085 184.451 C 306.725 186.483,306.854 187.034,307.854 187.747 C 309.565 188.965,311.546 186.739,312.049 183.033 C 312.450 180.076,314.146 179.618,320.464 180.758 C 322.233 181.078,325.976 181.515,328.783 181.730 C 331.591 181.946,334.208 182.223,334.599 182.347 C 334.991 182.471,337.021 182.779,339.110 183.032 C 341.199 183.285,343.709 183.598,344.688 183.726 C 345.668 183.855,347.377 184.078,348.487 184.222 C 349.596 184.367,350.932 184.582,351.454 184.701 C 352.682 184.981,357.972 185.991,360.712 186.470 C 361.887 186.675,363.917 186.931,365.223 187.040 C 366.528 187.148,367.917 187.353,368.309 187.494 C 369.388 187.884,372.317 188.441,374.837 188.735 C 376.077 188.880,377.786 189.158,378.635 189.354 C 385.907 191.029,389.068 190.534,388.801 187.764 C 388.711 186.821,388.483 186.678,385.045 185.410 C 384.006 185.026,379.353 184.248,377.923 184.219 C 377.335 184.207,376.588 184.044,376.261 183.858 C 375.935 183.671,375.187 183.514,374.599 183.508 C 374.012 183.503,372.677 183.298,371.632 183.053 C 370.588 182.808,368.985 182.479,368.071 182.321 C 367.157 182.164,365.555 181.841,364.510 181.603 C 363.466 181.366,362.131 181.094,361.543 181.000 C 360.595 180.848,357.900 180.194,353.947 179.157 C 353.228 178.968,352.053 178.699,351.335 178.558 C 350.617 178.418,348.801 178.029,347.300 177.695 C 345.798 177.361,344.322 177.089,344.020 177.090 C 343.718 177.091,343.276 176.988,343.039 176.861 C 342.801 176.734,341.820 176.512,340.859 176.367 C 339.897 176.222,337.935 175.755,336.499 175.328 C 335.062 174.901,333.086 174.383,332.107 174.176 C 327.598 173.225,326.847 172.940,322.255 170.436 C 321.080 169.796,319.858 169.157,319.540 169.016 C 319.221 168.876,318.519 168.365,317.979 167.882 C 317.439 167.399,316.486 166.587,315.861 166.079 C 313.966 164.538,313.980 164.616,313.831 154.777 L 313.700 146.113 313.040 144.737 C 311.674 141.892,309.662 141.777,308.358 144.471 C 307.894 145.431,307.808 146.144,307.615 150.692 C 307.387 156.066,307.428 156.617,308.399 161.068 C 309.022 163.928,309.080 170.035,308.514 173.294 C 307.982 176.361,307.782 176.429,301.365 175.692 C 300.190 175.557,297.947 175.334,296.380 175.195 C 294.813 175.057,292.730 174.842,291.751 174.719 C 290.772 174.595,289.062 174.431,287.953 174.353 C 286.843 174.276,285.454 174.116,284.866 173.998 C 284.279 173.881,281.822 173.670,279.407 173.530 C 276.991 173.391,273.893 173.170,272.522 173.041 C 271.151 172.911,267.880 172.662,265.253 172.488 C 259.261 172.090,259.150 172.043,255.512 168.371 C 254.056 166.900,252.791 165.697,252.701 165.697 C 252.611 165.697,252.040 165.270,251.432 164.747 C 248.892 162.563,247.726 161.662,247.444 161.662 C 247.279 161.662,246.676 161.188,246.105 160.608 C 245.534 160.029,244.795 159.487,244.463 159.403 C 244.131 159.320,243.716 158.984,243.540 158.656 C 243.365 158.328,242.951 157.919,242.620 157.747 C 240.375 156.579,239.525 154.112,239.525 148.761 C 239.525 144.071,239.844 143.478,242.542 143.137 C 243.429 143.026,245.062 142.569,246.172 142.122 C 247.282 141.676,248.457 141.231,248.783 141.133 C 252.282 140.088,252.494 137.709,249.410 134.071 C 244.205 127.932,243.641 124.041,247.668 122.059 C 249.444 121.184,250.167 121.136,251.618 121.794 C 254.642 123.166,256.467 119.897,253.969 117.586 C 251.594 115.388,243.635 116.964,241.476 120.060 C 239.401 123.034,239.825 128.274,242.405 131.548 C 242.779 132.023,243.086 132.512,243.086 132.634 C 243.086 132.756,243.412 133.348,243.810 133.950 C 245.529 136.544,245.001 137.464,241.389 138.168 C 238.223 138.784,237.552 137.753,237.137 131.632 C 237.030 130.065,236.829 127.501,236.690 125.935 C 235.961 117.753,235.732 114.483,235.678 111.452 C 235.646 109.644,237.336 105.473,238.708 103.976 C 239.007 103.650,239.638 102.639,240.109 101.730 C 240.581 100.820,241.047 100.019,241.145 99.949 C 241.519 99.682,242.841 97.478,243.102 96.687 C 243.253 96.231,243.878 95.041,244.492 94.042 C 245.431 92.514,247.359 88.430,247.359 87.969 C 247.359 87.893,248.043 86.363,248.880 84.568 C 249.716 82.774,250.522 80.825,250.670 80.237 C 250.818 79.650,251.036 78.955,251.155 78.694 C 252.821 75.011,252.966 61.400,251.388 56.716 C 251.130 55.952,250.920 55.163,250.920 54.964 C 250.920 54.278,249.913 51.693,248.637 49.105 C 247.934 47.678,247.359 46.428,247.359 46.327 C 247.359 46.225,247.039 45.835,246.647 45.460 C 246.255 45.085,245.935 44.651,245.935 44.497 C 245.935 43.658,241.772 38.689,240.250 37.711 C 238.902 36.844,237.153 36.772,236.080 37.539 M241.407 44.628 C 242.247 45.568,243.142 46.728,243.397 47.204 C 243.652 47.681,244.060 48.326,244.304 48.637 C 244.548 48.949,244.748 49.296,244.748 49.409 C 244.748 49.780,246.714 53.988,247.040 54.314 C 247.215 54.490,247.359 54.784,247.359 54.969 C 247.359 55.153,247.626 56.226,247.953 57.352 C 248.279 58.479,248.546 59.853,248.546 60.407 C 248.546 60.960,248.647 61.723,248.770 62.101 C 249.149 63.265,249.482 69.767,249.260 71.691 C 248.488 78.402,248.274 79.259,246.342 83.329 C 245.631 84.828,244.912 86.427,244.743 86.884 C 244.056 88.741,243.479 89.840,242.129 91.862 C 241.350 93.028,240.712 94.087,240.712 94.214 C 240.712 94.341,240.428 94.782,240.081 95.195 C 239.733 95.607,239.162 96.550,238.811 97.290 C 238.212 98.551,236.285 100.653,235.726 100.653 C 235.183 100.653,234.969 99.076,234.651 92.702 C 234.468 89.045,234.190 83.543,234.032 80.475 C 233.569 71.473,233.696 59.954,234.295 56.662 C 234.563 55.186,234.881 52.680,235.001 51.094 C 235.202 48.447,235.298 48.047,236.163 46.241 C 236.682 45.159,237.205 43.953,237.325 43.561 C 237.886 41.742,239.118 42.064,241.407 44.628 M143.977 102.158 C 143.277 103.832,143.767 106.234,144.930 106.834 C 145.844 107.305,147.740 108.511,147.893 108.718 C 148.733 109.854,150.995 110.455,152.261 109.879 C 152.729 109.666,153.201 109.699,154.507 110.038 C 156.761 110.622,157.928 109.961,157.519 108.330 C 157.246 107.240,153.771 104.263,151.984 103.587 C 151.366 103.353,150.220 102.796,149.436 102.349 C 148.248 101.671,147.708 101.517,146.173 101.420 L 144.334 101.304 143.977 102.158 M232.372 115.230 C 232.552 115.606,232.791 117.141,232.903 118.642 C 233.015 120.142,233.212 121.970,233.341 122.703 C 233.470 123.436,233.685 125.333,233.818 126.919 C 233.952 128.505,234.223 130.568,234.419 131.504 C 235.056 134.531,234.917 137.603,234.125 138.003 C 231.112 139.524,224.059 137.794,222.428 135.135 C 221.452 133.543,221.428 129.973,222.385 128.680 C 222.672 128.290,222.908 127.867,222.908 127.738 C 222.908 126.883,224.756 123.148,225.989 121.512 C 226.775 120.469,227.418 119.465,227.418 119.281 C 227.418 119.098,227.899 118.406,228.487 117.745 C 229.074 117.083,229.555 116.455,229.555 116.349 C 229.555 115.945,231.282 114.399,231.654 114.471 C 231.868 114.512,232.191 114.854,232.372 115.230 M243.291 164.590 C 243.436 164.764,244.032 165.153,244.615 165.453 C 245.199 165.753,245.868 166.175,246.102 166.390 C 246.593 166.841,250.494 169.412,251.630 170.033 C 252.291 170.395,252.353 170.505,252.083 170.830 C 251.420 171.628,242.317 170.838,241.757 169.933 C 241.502 169.520,240.967 167.036,240.958 166.223 C 240.941 164.678,242.474 163.605,243.291 164.590 M237.926 167.341 C 238.242 167.632,237.841 168.921,237.336 169.236 C 236.752 169.601,236.449 169.272,236.443 168.269 C 236.435 166.985,237.091 166.575,237.926 167.341 M316.640 172.323 C 317.639 172.834,318.724 173.330,319.050 173.425 C 319.377 173.520,319.936 173.881,320.293 174.228 C 320.649 174.575,321.848 175.282,322.956 175.798 C 324.860 176.684,325.424 177.268,324.769 177.672 C 324.239 178.000,317.049 177.660,315.432 177.230 C 313.555 176.732,313.361 176.619,313.213 175.938 C 313.137 175.594,313.027 175.156,312.966 174.967 C 312.773 174.362,313.161 172.096,313.518 171.739 C 314.053 171.203,314.679 171.321,316.640 172.323 M227.129 173.816 C 228.069 174.018,229.172 174.015,231.539 173.806 C 233.275 173.652,235.007 173.577,235.389 173.638 C 235.771 173.699,236.492 173.813,236.991 173.891 C 238.497 174.128,238.605 174.650,238.831 182.789 C 238.938 186.641,239.086 190.380,239.160 191.098 C 239.234 191.816,239.185 195.501,239.052 199.288 C 238.919 203.074,238.755 208.095,238.688 210.445 C 238.620 212.795,238.514 214.985,238.453 215.312 C 238.391 215.638,238.236 217.317,238.108 219.043 C 237.816 222.997,236.930 224.957,235.763 224.236 C 235.132 223.846,230.568 213.695,229.792 210.955 C 229.502 209.929,228.787 207.686,228.203 205.970 C 227.619 204.253,227.048 202.331,226.935 201.699 C 226.821 201.067,226.519 199.945,226.264 199.206 C 226.010 198.468,225.726 197.329,225.634 196.677 C 225.543 196.024,225.332 195.273,225.167 195.009 C 225.002 194.744,224.787 193.846,224.690 193.012 C 224.494 191.323,223.305 186.948,222.914 186.477 C 222.776 186.310,222.445 185.172,222.180 183.947 C 221.914 182.723,221.447 180.760,221.142 179.585 C 219.538 173.402,220.568 172.409,227.129 173.816 " stroke="none" fill="#000000" fill-rule="evenodd"></path></g></svg>